Coordinates
version=1
nRows=26
nColumns=22
inDegrees=yes

Units are S.I. units (second, meters, Newtons, ...)
If the header above contains a line with 'inDegrees', this indicates whether rotational values are in degrees (yes) or radians (no).

endheader
time	pelvis_tilt	pelvis_list	pelvis_rotation	pelvis_tx	pelvis_ty	pelvis_tz	hip_flexion_r	hip_adduction_r	hip_rotation_r	knee_angle_r	ankle_angle_r	subtalar_angle_r	hip_flexion_l	hip_adduction_l	hip_rotation_l	knee_angle_l	ankle_angle_l	subtalar_angle_l	lumbar_extension	lumbar_bending	lumbar_rotation
      3.13000000	      4.71386522	      1.02822550	     -4.74431051	      0.63209283	      1.00877909	     -0.22654049	     21.30533950	     -2.43817044	     -6.52656503	    -21.49732974	      1.97151787	      7.18179289	     -2.80499514	      5.75193554	     -0.43944677	    -19.50226853	     13.83479862	     -4.35541745	    -15.33919745	     -1.68758304	     -3.87992014
      3.14000000	      4.80344019	      1.12018431	     -4.65063852	      0.64051417	      1.00771429	     -0.22553826	     21.07187722	     -2.07695019	     -5.66001860	    -19.44853618	      0.85290884	      8.41604720	     -3.32030910	      5.80589822	     -0.41651731	    -19.71909482	     14.21767602	     -4.23692755	    -15.36922223	     -1.81441709	     -3.87579287
      3.15000000	      4.88143909	      1.19696094	     -4.54267675	      0.64901758	      1.00659951	     -0.22453447	     20.82925497	     -1.72970322	     -4.75799432	    -17.67864621	     -0.25005667	      9.59988539	     -3.79930526	      5.83765109	     -0.38152839	    -19.99282518	     14.58825831	     -4.09440548	    -15.37318162	     -1.91598972	     -3.87753932
      3.16000000	      4.94773338	      1.25074758	     -4.42368248	      0.65762692	      1.00544233	     -0.22354810	     20.58680576	     -1.39331805	     -3.90087572	    -16.21162764	     -1.26834236	     10.62938050	     -4.24533309	      5.84138108	     -0.33528854	    -20.32214510	     14.96015814	     -3.93425371	    -15.34583565	     -1.97803032	     -3.87401048
      3.17000000	      4.99904576	      1.27521865	     -4.28888015	      0.66631446	      1.00423946	     -0.22258296	     20.36726819	     -1.06340656	     -3.18567047	    -15.07697988	     -2.17692343	     11.40354270	     -4.63278447	      5.80592434	     -0.29633296	    -20.74727838	     15.30649236	     -3.77381093	    -15.29373114	     -1.99487003	     -3.87120637
      3.18000000	      5.04978993	      1.30395020	     -4.13536800	      0.67519238	      1.00304571	     -0.22166378	     20.15416545	     -0.77632811	     -2.63634583	    -14.27136987	     -2.87896100	     12.05988583	     -5.04661599	      5.78040490	     -0.17980079	    -21.14110066	     15.64988683	     -3.53730461	    -15.20887915	     -2.00485997	     -3.88076136
      3.19000000	      5.06083154	      1.29918722	     -3.95776457	      0.68415320	      1.00177639	     -0.22076510	     20.00512796	     -0.48221636	     -2.30195929	    -13.79592622	     -3.48052238	     12.28013717	     -5.37060873	      5.70760967	     -0.06718430	    -21.63996767	     15.96260022	     -3.36349680	    -15.06938813	     -1.96437833	     -3.88850489
      3.20000000	      5.09211341	      1.26551457	     -3.77940296	      0.69329566	      1.00055424	     -0.21987059	     19.83578477	     -0.18332898	     -2.12668654	    -13.60052738	     -3.92513723	     12.21738548	     -5.71770639	      5.60091637	      0.02723192	    -22.16021698	     16.26820843	     -3.05437416	    -14.92631467	     -1.87874842	     -3.91644059
      3.21000000	      5.08936202	      1.20812930	     -3.57723327	      0.70255246	      0.99930316	     -0.21898609	     19.71768373	      0.11516756	     -2.10315641	    -13.67293143	     -4.34734091	     11.58660603	     -6.00929125	      5.46256820	      0.15648392	    -22.73071007	     16.55078676	     -2.69712313	    -14.73038394	     -1.76058573	     -3.92813229
      3.22000000	      5.05865535	      1.11703774	     -3.36180082	      0.71190301	      0.99804667	     -0.21809967	     19.65468821	      0.42450148	     -2.16622641	    -13.99684868	     -4.78919185	     10.41771276	     -6.25332613	      5.28172271	      0.29412386	    -23.34519554	     16.80635353	     -2.33882924	    -14.48800270	     -1.59534668	     -3.95659651
      3.23000000	      5.00301276	      0.98992507	     -3.12888500	      0.72130760	      0.99681373	     -0.21723177	     19.64339650	      0.74189266	     -2.28865216	    -14.53106602	     -5.26672301	      8.70165674	     -6.43875067	      5.05767531	      0.44136770	    -24.02528073	     17.02281204	     -1.94639132	    -14.21250778	     -1.37931327	     -3.98071960
      3.24000000	      4.92474126	      0.83939686	     -2.89286909	      0.73072920	      0.99563341	     -0.21637948	     19.70512416	      1.05246396	     -2.44870240	    -15.27538625	     -5.75305621	      6.53235280	     -6.56916178	      4.80984255	      0.60030490	    -24.75978032	     17.18073010	     -1.52261867	    -13.90967072	     -1.13062401	     -3.99995724
      3.25000000	      4.82453205	      0.67101557	     -2.65251660	      0.74014830	      0.99454463	     -0.21558255	     19.84958272	      1.34386578	     -2.63064143	    -16.21704229	     -6.15855958	      4.17225403	     -6.64284193	      4.54898065	      0.77458818	    -25.54856132	     17.25283323	     -1.08297108	    -13.58432740	     -0.84942625	     -4.01298434
      3.26000000	      4.71246029	      0.48861836	     -2.41571676	      0.74954447	      0.99360117	     -0.21484714	     20.07070524	      1.61295803	     -2.80654588	    -17.34333592	     -6.35506967	      1.93289753	     -6.66740038	      4.28264986	      0.96004072	    -26.39019976	     17.21213447	     -0.63516490	    -13.24980527	     -0.54035761	     -4.02162632
      3.27000000	      4.60356973	      0.30296595	     -2.19169643	      0.75891690	      0.99286615	     -0.21417273	     20.33703008	      1.85631609	     -2.92714581	    -18.61313491	     -6.23957990	      0.06876308	     -6.66037214	      4.02575228	      1.14826578	    -27.27777905	     17.03382504	     -0.17783974	    -12.92342082	     -0.21634274	     -4.02461584
      3.28000000	      4.51373509	      0.11694204	     -1.99002057	      0.76827320	      0.99240565	     -0.21352729	     20.60143054	      2.08286386	     -2.96367422	    -19.96292134	     -5.82484122	     -1.29545814	     -6.64155032	      3.78003952	      1.32575127	    -28.20172239	     16.69528848	      0.29788142	    -12.62284558	      0.11441939	     -4.01635755
      3.29000000	      4.45261637	     -0.07674496	     -1.80916846	      0.77763003	      0.99226302	     -0.21290259	     20.80536187	      2.30657215	     -2.92675326	    -21.29469695	     -5.18473306	     -2.15530103	     -6.62058232	      3.53123769	      1.47032700	    -29.16051379	     16.18799460	      0.80204707	    -12.35592553	      0.46067478	     -4.00200420
      3.30000000	      4.42576298	     -0.27822198	     -1.64534462	      0.78698594	      0.99246284	     -0.21229149	     20.90281446	      2.52808911	     -2.86679877	    -22.52439126	     -4.40903699	     -2.58081305	     -6.60166379	      3.27176475	      1.56823987	    -30.15023069	     15.50848213	      1.33250076	    -12.12899008	      0.82230077	     -3.98635301
      3.31000000	      4.43009382	     -0.49512768	     -1.49318128	      0.79632904	      0.99300219	     -0.21166916	     20.84969694	      2.75976681	     -2.81254042	    -23.55307065	     -3.59068857	     -2.70509310	     -6.57506920	      2.98258260	      1.60670867	    -31.17672900	     14.64508666	      1.92101317	    -11.93818475	      1.20462402	     -3.97203399
      3.32000000	      4.45999235	     -0.72351631	     -1.34252197	      0.80563954	      0.99384696	     -0.21104068	     20.63119231	      2.99393004	     -2.81452766	    -24.33395728	     -2.78261544	     -2.64955758	     -6.53184118	      2.65928225	      1.58424721	    -32.23704877	     13.60493223	      2.53348122	    -11.77790559	      1.60237922	     -3.96470909
      3.33000000	      4.49521296	     -0.96113858	     -1.17647754	      0.81487001	      0.99492873	     -0.21042205	     20.25564156	      3.22796050	     -2.89790334	    -24.83274872	     -2.00760559	     -2.55000241	     -6.43823499	      2.30192853	      1.53488061	    -33.34504881	     12.40993341	      3.12499899	    -11.62709531	      2.01353466	     -3.97067071
      3.34000000	      4.52709773	     -1.18687352	     -1.01272359	      0.82396208	      0.99617137	     -0.20976206	     19.76760664	      3.44582590	     -3.06657340	    -25.10032904	     -1.34186914	     -2.45935309	     -6.27373142	      1.91574935	      1.38511866	    -34.50859355	     11.05158901	      3.77560572	    -11.48277594	      2.40172464	     -3.98477404
      3.35000000	      4.53090077	     -1.41137193	     -0.82046447	      0.83290262	      0.99749161	     -0.20915161	     19.19025243	      3.65650495	     -3.30272063	    -25.13298433	     -0.72829969	     -2.44163145	     -6.01210653	      1.50479860	      1.23968592	    -35.72788868	      9.58401724	      4.33865729	    -11.31388343	      2.79459779	     -4.00638268
      3.36000000	      4.51634200	     -1.60012988	     -0.62839234	      0.84163835	      0.99883065	     -0.20851175	     18.55678533	      3.83267870	     -3.58928458	    -24.99993197	     -0.14577937	     -2.48413756	     -5.64814608	      1.08727871	      1.00276443	    -37.02381017	      8.06921651	      4.99246761	    -11.13980273	      3.13148210	     -4.02357231
      3.37000000	      4.46593152	     -1.78379399	     -0.41257249	      0.85015102	      1.00013282	     -0.20791153	     17.90307175	      4.00583315	     -3.90205484	    -24.73027448	      0.37713408	     -2.58399323	     -5.16620939	      0.64956015	      0.77667716	    -38.39263991	      6.54702695	      5.60388022	    -10.94005528	      3.45904548	     -4.03187583
      3.38000000	      4.39525893	     -1.97235063	     -0.16669452	      0.85840429	      1.00138222	     -0.20737391	     17.23760589	      4.18209619	     -4.24716519	    -24.36165443	      0.79550171	     -2.67803023	     -4.57047602	      0.16855450	      0.51976153	    -39.85147966	      5.08989056	      6.03495489	    -10.73938953	      3.79191610	     -4.05144793
